<svg width="4" height="18" viewBox="0 0 4 18" fill="none" xmlns="http://www.w3.org/2000/svg">
  <path fill-rule="evenodd" clip-rule="evenodd" d="M3.5 1.5C3.5 2.32843 2.82843 3 2 3C1.17157 3 0.5 2.32843 0.5 1.5C0.5 0.671573 1.17157 0 2 0C2.82843 0 3.5 0.671573 3.5 1.5ZM3.5 9C3.5 9.82843 2.82843 10.5 2 10.5C1.17157 10.5 0.5 9.82843 0.5 9C0.5 8.17157 1.17157 7.5 2 7.5C2.82843 7.5 3.5 8.17157 3.5 9ZM2 18C2.82843 18 3.5 17.3284 3.5 16.5C3.5 15.6716 2.82843 15 2 15C1.17157 15 0.5 15.6716 0.5 16.5C0.5 17.3284 1.17157 18 2 18Z" fill="white"/>
</svg>
