<svg width="24" height="24" viewBox="0 0 24 24" fill="none" xmlns="http://www.w3.org/2000/svg">
  <path
    d="M17.0974 17.3703V15.2814C17.0974 14.7629 17.5178 14.3425 18.0363 14.3425V14.3425C18.5549 14.3425 18.9752 14.7629 18.9752 15.2814V17.981C18.9752 19.0844 18.0596 20 16.9802 20H5.99499C4.89159 20 4 19.0844 4 17.981V7.01903C4 5.91562 4.89234 5 5.99499 5L14.3408 5.02096C14.8526 5.02224 15.2669 5.43754 15.2669 5.94939V5.94939C15.2669 6.46214 14.8512 6.87782 14.3385 6.87782H6.62894C6.2301 6.87782 5.87782 7.2301 5.87782 7.65223V17.3703C5.87782 17.7932 6.2301 18.1214 6.62894 18.1214H16.347C16.7459 18.1214 17.0974 17.7924 17.0974 17.3703ZM18.8813 5.91562L20.8763 7.91062L21.7919 6.99499L19.7969 5L18.8813 5.91562ZM11.8628 12.9574L13.8345 14.9524L20.1958 8.59114L18.2241 6.59614L11.8628 12.9574ZM10.4544 16.3375L13.1773 15.6097L11.1823 13.6147L10.4544 16.3375Z"
    fill="white"
  />
</svg>
