<svg width="24" height="24" viewBox="0 0 24 24" fill="none" xmlns="http://www.w3.org/2000/svg">
  <path
    d="M7.31263 6.07362V5.34896C7.32827 4.13174 8.35487 3.05857 9.59611 3.01091C10.7137 2.99636 13.2863 2.99636 14.4039 3.01091C15.6211 3.05784 16.6714 4.10663 16.6874 5.34896V6.07362H20V7.52876H18.3841V18.1186C18.3684 19.3365 17.3418 20.4089 16.1002 20.457C13.3857 20.4915 10.6704 20.4577 7.95507 20.4577C6.71966 20.4417 5.6323 19.3809 5.6163 18.1186V7.52876H4V6.07362H7.31263ZM16.9289 7.52876H7.07071C7.06562 11.0648 7.02633 14.6011 7.07144 18.1367C7.08926 18.5915 7.4807 18.9844 7.93688 19.0022C10.6456 19.0367 13.3547 19.0367 16.0631 19.0022C16.5262 18.9844 16.9227 18.5791 16.9289 18.1091V7.52876ZM15.2188 6.07362C15.2137 5.77168 15.2188 5.35587 15.2188 5.35587C15.2188 5.35587 15.1973 4.47624 14.3664 4.46569C13.274 4.4515 10.726 4.4515 9.63358 4.46569C9.17048 4.48352 8.77395 4.88841 8.76777 5.35842V6.07362H15.2188Z"
    fill="#EB6F6F"
  />
  <path d="M9.63872 10.2958H8.54736V16.2353H9.63872V10.2958Z" fill="#EB6F6F" />
  <path d="M12.5457 10.2958H11.4543V16.2353H12.5457V10.2958Z" fill="#EB6F6F" />
  <path d="M15.459 10.2958H14.3677V16.2353H15.459V10.2958Z" fill="#EB6F6F" />
</svg>
